<svg xmlns="http://www.w3.org/2000/svg" data-name="Layer 1" viewBox="0 0 100 125" x="0px" y="0px"><title>A_82</title><path d="M45.6145,63.12158,29.87622,78.85938A3,3,0,0,1,25.634,74.61621L39.25024,61,25.634,47.38379a3,3,0,0,1,4.24219-4.24316L45.6145,58.87842a3.00007,3.00007,0,0,1,0,4.24316Zm22.666,10.61621H46.02466a3,3,0,0,0,0,6H68.28052a3,3,0,0,0,0-6ZM7.13855,5H92.86194a2.13828,2.13828,0,0,1,2.1383,2.13831V92.86169A2.13828,2.13828,0,0,1,92.86194,95H7.13855a2.13829,2.13829,0,0,1-2.13831-2.13831V7.13831A2.13829,2.13829,0,0,1,7.13855,5Zm2.86169,85h80V30h-80Z"/><text x="0" y="115" fill="#000000" font-size="5px" font-weight="bold" font-family="'Helvetica Neue', Helvetica, Arial-Unicode, Arial, Sans-serif">Created by Hrbon</text><text x="0" y="120" fill="#000000" font-size="5px" font-weight="bold" font-family="'Helvetica Neue', Helvetica, Arial-Unicode, Arial, Sans-serif">from the Noun Project</text></svg>